<svg version="1.1" viewBox="0 0 513 141" xmlns="http://www.w3.org/2000/svg" fill="currentColor">
    <path d="m86.478 0.55823c-13.903-0.02058-27.625 0.93187-39.485 5.0788-6.5018 2.2734-14.441 6.0469-16.922 11.365-2.8202 6.0437-1.5297 12.263 0.3276 18.109 1.5865 4.7441 3.2679 8.0448 7.2671 12.704-3.8739-7.2963-7.0043-15.418-7.1579-22.794-0.11153-5.3575 1.22-8.3873 5.1993-11.681 4.0084-2.716 7.6069-4.3509 12.174-5.8544 13.41-4.4147 27.579-4.6882 38.643-4.6715 15.755 0.02383 22.935 0.33525 34.919 2.9502 12.748 2.7815 26.64 6.4436 36.135 14.436 5.4475 4.5853 12.341 11.188 12.667 18.286 0.44697 9.7264-3.9828 15.793-11.216 20.673-4.4621 3.0106-8.7987 5.1049-17.676 7.8236-16.387 5.0183-34.627 7.4325-50.211 8.2876-11.802 0.64754-37.547 0.82168-37.547 0.82168s0.24449-6.1544 0.07045-12.697c-0.38136-14.339-0.82836-18.099-1.5605-20.907-0.73214-2.8075-2.1093-6.9312-4.0862-6.368-2.3283 0.66329 1.0904 6.1413 1.9022 12.477 0.81182 6.3362 0.77318 6.523 0.8419 14.666 0.05726 6.7911-0.33112 12.619-0.33112 12.619s-14.446-22.673-31.735-25.284c-5.2508-0.79294-18.446 3.0239-18.511 12.57-0.05001 7.3578 11.75 11.27 18.173 12.722 11.15 2.4476 19.633 2.2581 30.167 2.4827l1.9903 3.0388-0.33464 5.0469c-0.24335 2.4739-0.52186 5.672-0.61997 7.1082-0.64471 6.1904-1.7125 11.56-2.8075 17.875-0.52236 3.287-1.3604 7.2018-1.8634 8.702-0.50301 1.5002-1.059 3.2274-1.3315 3.6586-0.59972 0.94855-2.4413 3.9099-0.58827 3.0458 1.3589-0.63367 2.0025-1.5393 2.9237-2.9998 2.1474-3.6023 2.7485-9.4459 3.9911-14.032 1.0351-4.5331 1.7763-9.5314 2.8216-18.984 0.21937-1.9835 0.49316-5.7517 0.49316-5.7517 6.8526 8.794 13.974 18.195 21.917 23.811 2.4495 1.6312 5.6873 2.9874 8.81 2.759 3.3231-0.19077 5.0539-0.97835 7.9082-2.2808 1.1655 4.8814 5.4812 9.7196 10.994 9.7432 5.9416 0.0674 13.74-6.5481 15.954-14.5 7e-3 -0.089 0.0106-0.18894 0.0177-0.27979 0.47864 2.6786 0.76682 5.5964 0.79963 9.2899 0.40343 2.4336 1.483 3.0357 2.8956 2.7909 0.89438-0.15502 4.9213-5.2597 6.168-6.4707 1.1493-1.1163 5.3701-6.8022 7.1896-6.6442 1.8376 0.1595 8.3386 10.441 13.911 10.933 3.9516 0.0924 6.2474-1.6225 11.357-6.4601 2.3374-2.2131 4.3586-4.0229 4.4913-4.0198 1.0431 2.6213 2.6803 6.0754 4.2729 8.6028 4.5146 6.1896 11.836 5.2764 15.091 4.4838 11.336-2.5349 14.977-5.3764 18.286-8.5532 1.1364-1.091 3.5236-3.8374 3.7797-3.8392 0.20488-1e-3 5.1224 9.8944 9.1693 10.115 3.9749 0.21678 10.232-8.9041 10.617-8.8826 0.37076 0.0207 1.3939 2.8199 2.413 4.3598 1.0531 1.5914 3.2566 3.9681 4.8753 4.0057 1.6769 0.0389 5.3506-2.8552 8.2957-5.5003 4.0599-3.6463 6.3664-6.4094 8.588-5.3126 3.6134 1.7839 4.9593 10.945 5.8299 10.515 1.1163-0.55095-0.64905-11.974-6.1046-13.033-2.9437-0.57167-6.6532 3.1479-8.9297 5.2205-2.5798 2.3486-5.4165 5.1112-7.5313 5.348-0.90894 0.10174-2.8132-2.5784-3.8467-5.2771-0.93646-2.4455-2.1128-5.6437-3.5613-4.459-3.7022 3.0278-7.8512 10.63-10.473 9.8814-2.885-0.82384-6.0113-9.7161-7.8976-12.219-1.2214-1.6205-3.6071 1.8594-3.6071 1.8594s-5.7576-5.6342-14.7-1.785c-3.4977 1.515-7.436 4.4603-8.2076 7.7174-0.97885 4.1319 4.0474 6.2405 4.0474 6.2405-3.9499 1.0348-9.7541 1.4727-12.766-2.4084-0.82937-1.1249-2.356-3.9824-3.5367-6.7292-1.5788-3.6732-2.4888-5.091-3.4416-5.3551-0.99034-0.27449-1.6825 0.0905-2.9308 1.5513-3.6414 4.2612-9.7676 9.9281-12.833 9.9982-3.3338 0.0763-5.8899-2.774-8.3274-5.5428-2.7201-3.0899-4.2488-6.2342-6.2138-6.1696-2.4048 0.079-3.8318 2.6899-5.6784 4.9761-1.9215 2.3789-6.6051 8.7458-7.4784 8.4647-0.73688-0.23718-0.77409-6.3475-1.4689-9.5838-0.97416-5.6731-1.7758-5.8658-3.5963-5.6582-3.3081 0.37731-1.4667 5.1952-2.1173 7.1138-2.426 6.4503-7.219 12.379-13.632 11.525-4.6503-0.61943-7.6685-5.9333-6.7739-10.643 0.66132-3.0895 0.49694-5.4725-0.41918-6.0563-1.5243-0.97133-2.6848-0.513-3.3183 1.314-0.34849 1.0051-0.63407 2.8266-0.63407 4.0482 0 1.7581-0.31691 2.428-1.5182 3.2194-0.83474 0.54991-2.5881 1.1533-3.896 1.3388-2.6517 0.37607-5.6683-0.10416-8.6796-2.2277-10.146-7.1547-16.841-16.39-23.101-26.163 0 0-0.38075-1.7738 0.31351-1.8134 5.0619-0.28803 27.225-0.20267 37.748-0.80042 11.629-0.66059 27.878-2.7681 40.799-5.2984 10.887-2.1321 18.943-4.4794 26.821-9.6334 8.6809-5.6795 15.945-15.111 13.432-25.38-1.5074-6.1578-4.1207-10.422-8.7466-14.875-6.3882-6.1499-15.88-11.847-25.556-15.073-11.738-3.9138-24.564-6.1455-38.09-6.5592-4.6123-0.14108-9.2659-0.25522-13.9-0.26209zm-69.205 52.3c0.43638-0.0024 0.86472 0.01487 1.2787 0.04958 11.03 1.7499 23.48 13.955 28.942 23.361-8.8082-0.30465-19.867-0.22912-28.381-2.1746-5.6869-1.7394-16.386-4.7494-16.739-11.036-0.33943-6.0457 8.3548-10.165 14.901-10.2zm180.04 48.068c1.7643 0.0919 3.2869 0.63222 3.9523 1.7319 1.2933 2.1372-3.8683 5.7864-6.7598 6.6974-2.2663 0.71397-7.3683 1.2715-8.7818-0.12042-1.791-1.7636 1.2501-5.5173 6.1856-7.3561 1.6337-0.68941 3.6394-1.0447 5.4036-0.95272z"/>
    <path d="m323.96 25.622c-16.953 0.51114-28.097 4.0203-42.378 10.467-12.028 5.4299-33.099 18.612-33.656 32.387-0.28599 7.0754 7.4735 16.068 16.843 25.192 9.3696 9.1241 20.821 18.253 20.821 18.253s-12.227 5.4153-15.541 7.3521c-8.0159 4.6855-17.021 11.814-16.702 15.311 0.52536 5.7538 13.855 6.545 25.035 5.6766 8.8347-0.6863 26.16-2.3373 28.669-10.257 1.0536-4.3351-6.3063-9.8766-8.767-11.88-2.4658-2.007-7.2218-5.5884-7.4932-5.8183-0.27143-0.22984 4.5339-1.7816 6.3243-2.4453 2.3551-0.87295 5.343-1.7845 7.7666-2.9716 0 0 0.51388 3.6509 4.9659 3.5731 3.9111-0.0684 6.8034-1.0177 13.642-3.1404 1.8344-0.56944 3.5988-1.0304 3.921-1.026 0.33745 5e-3 0.42315 0.62155 0.20195 1.4586-0.62768 2.3753 7e-3 6.6403 1.637 8.0454 3.2227 2.7782 6.2115 3.2124 10.388 1.6034 2.2428-0.71779 6.1477-2.5179 8.679-3.999 2.5313-1.4811 5.9236-3.9053 6.1931-3.9016 0.26947 4e-3 5.0309 3.902 9.9221 3.8834 4.0672-0.0154 9.4557-1.6391 9.4557-1.6391s3.5472 4.1981 12.013 3.3792c4.7891-0.46331 8.5858-3.3327 10.8-4.2653 3.8567 2.4622 5.7704 3.5276 10.953 2.4425 3.38-0.70773 6.1984-2.3188 8.4457-4.6955l4.1312-4.7052c1.1737 4.1234 3.8164 7.7056 6.6957 7.654 4.566-0.0818 8.612-3.1994 10.913-5.4474 2.0847-2.049 3.9201-3.8799 4.5709-3.716 1.0534 0.26531 3.4098 9.3069 8.6301 10.728 7.1749 1.9525 15.593-8.3821 20.352-7.9477 2.2103 5e-3 7.4062 9.2746 13.11 8.7594 4.0418-0.79623 4.3512-4.5885 9.727-7.2512 5.3137-2.6319 17.957-2.8841 17.957-2.8841-4.6687-0.48034-12.18-0.51708-15.901 1e-3 -5.8502 0.81462-9.525 6.2452-12.476 6.2061-5.4541 0.0349-7.4397-8.2856-11.733-8.9388-6.5116-0.99091-15.353 10.386-20.183 8.4778-5.0829-2.1969-4.1439-8.3209-8.0217-10.685-4.0989-2.2219-6.0923 4.8957-11.867 7.8526-1.2897 0.76453-3.5201 1.8167-4.9296 1.5666-3.5459-0.63188-4.0171-4.9703-3.8991-7.5219-0.12174-2.3091 0.77526-4.6641-1.054-4.9022-0.8213-0.1069-1.5347 0.13772-2.4513 2.58-1.6211 4.3196-5.1156 8.0269-9.2918 10.412-3.482 1.8878-7.9828 2.3182-10.891 0.14298-9e-3 -0.14793 1.5794-0.93411 2.765-2.2711 1.9033-2.1709 4.002-5.1651 3.2911-8.2711-0.4672-2.0411-2.2126-3.7229-4.685-3.8868-6.895-0.45717-7.7653 9.0541-5.42 13.809 0 0-4.8039 3.1825-9.4286 3.8756-6.8476 1.0262-9.4785-1.9166-9.4785-1.9166s2.887-1.257 4.1702-2.4995c2.0618-2.0193 4.0746-4.5558 3.6004-7.7071-0.35615-2.3667-2.6957-4.1961-5.531-3.8561-4.3936 0.66954-6.5915 5.1088-6.1357 12.496 0.18017 0.97517-3.6101 1.9635-7.6928 1.8474-5.1014-0.14514-8.1406-3.0296-8.1406-3.0296s2.1466-2.5164 3.6019-4.8289c1.6172-2.5697 3.8844-6.5149 5.3384-11.288 1.0507-3.4493 1.9978-14.359-1.5551-16.588-3.5528-2.2289-9.1356 11.499-10.146 15.186-1.4645 5.5838-2.2166 10.861-1.0233 16.443l-3.4443 2.56c-2.9529 1.9305-11.017 5.3724-12.476 5.5244-3.8072 0.39698-5.7566-1.2756-5.7033-4.8998 0.02-1.376 0.51816-3.2293 1.125-4.1923 0.5981-0.94925 1.9162-2.5896 2.9318-3.6466 1.0155-1.057 1.8529-2.3006 1.8592-2.7618 7e-3 -0.46122-0.95881-1.2636-2.1421-1.783-1.7215-0.75558-3.5258-1.5583-9.0702-1.3796-4.8792 0.15722-7.9607 1.2279-10.389 2.0485-3.4014 1.1086-5.5453 1.9079-10.427 6.3338-1.4521 0.95852-3.971 1.9587-8.0095 3.2255-4.0386 1.2668-8.3756 2.9092-8.3756 2.9092s-11.824-9.8385-20.222-17.406c-8.3987-7.5671-16.887-16.837-17.333-23.211-0.87251-12.453 16.842-23.386 31.08-30.576 12.097-6.1087 26.773-9.797 40.19-10.848 3.5479-0.24706 6.509-0.23045 6.8343 2.8363-0.34029 1.596-0.52195 3.1371-3.5852 6.4722-2.5123 2.7352-1.5189 1.5547-5.7139 5.3601 5.3643-3.4867 12.809-9.1717 11.592-14.197-0.92701-2.7596-4.5575-3.3477-7.7782-3.2506zm39.055 52.994c2.75 10.441-1.8534 18.577-7.1998 25.217-1.9215-6.1179 0.9348-17.169 7.1998-25.217zm37.719 18.507c5.5325 1.2557 0.0433 8.7521-3.0002 9.793-1.9631-3.2858-0.96043-10.692 3.0002-9.793zm-21.761 1.6038c0.37852-0.043 0.76992 0.0179 1.1703 0.20749 3.6529 1.7292-0.23856 6.9642-4.8092 8.7601-0.96743-3.1994 0.98916-8.6664 3.6389-8.9676zm-50.337 0.36821c1.9853 0.91329 0.67794 2.8739-2.1591 4.0788-3.7407 1.5887-7.7905 3.0253-11.631 3.6619-1.9797 0.38687-4.1848 0.61314-5.9194 0.13272-1.5384-0.42608 2.9936-4.9715 9.2619-6.69 1.1074-0.41538 3.8509-0.96976 6.2775-1.2625 1.4352-0.27414 2.8571-0.26416 4.17 0.0791zm-40.995 14.311s4.8739 3.8685 11.15 8.452c3.4026 2.4849 6.0011 5.3496 5.7283 7.3089-1.6092 6.6103-15.614 7.5528-22.467 8.4501-6.9846 0.9146-15.457 1.0354-19.749 0.10264-3.6627-0.79619-6.2648-1.959-6.3636-3.3668-0.14591-2.0796 4.0308-6.5341 15.596-13.602 5.8847-3.596 16.104-7.3453 16.104-7.3453z"/>
</svg>
